<?xml version="1.0" encoding="utf-8"?>
<svg id="master-artboard" viewBox="0 0 442.06671142578125 428.1161804199219" version="1.1" xmlns="http://www.w3.org/2000/svg" x="0px" y="0px" style="enable-background:new 0 0 1400 1400;" width="442.06671142578125px" height="428.1161804199219px"><rect id="ee-background" x="0" y="0" width="442.06671142578125" height="428.1161804199219" style="fill: white; fill-opacity: 0; pointer-events: none;"/>


<g transform="matrix(1, 0, 0, 1, 0, -7.105427357601002e-15)">
		<path class="st1" d="M1094.4,826.6c-1.7-4.3-11.4-14.6-38.4-29.7c-6.5,13.5-13.7,26.6-21.7,39.1&#10;&#9;&#9;&#9;C1074.2,835.7,1090.5,830,1094.4,826.6z" style="fill: rgb(252, 250, 247);" transform="matrix(0.43423303422782505, 0, 0, 0.43423303422782505, 83.27453712924688, 63.68292707552369)"/>
		
		
		
		<path class="st1" d="M1219.2,349.6l4.4-1l-4.4-1c-1.2-0.3-2.1-1.2-2.4-2.4l-1-4.4l-1,4.4c-0.3,1.2-1.2,2.1-2.4,2.4l-4.4,1l4.4,1&#10;&#9;&#9;&#9;c1.2,0.3,2.1,1.2,2.4,2.4l1,4.4l1-4.4C1217,350.8,1218,349.9,1219.2,349.6z" style="fill: rgb(252, 250, 247);" transform="matrix(0.43423303422782505, 0, 0, 0.43423303422782505, 83.27453712924688, 63.68292707552369)"/>
		<path class="st1" d="M1353.4,73.3l4.4-1l-4.4-1c-1.2-0.3-2.1-1.2-2.4-2.4l-1-4.4l-1,4.4c-0.3,1.2-1.2,2.1-2.4,2.4l-4.4,1l4.4,1&#10;&#9;&#9;&#9;c1.2,0.3,2.1,1.2,2.4,2.4l1,4.4l1-4.4C1351.3,74.5,1352.2,73.6,1353.4,73.3z" style="fill: rgb(252, 250, 247);"/>
		<path class="st1" d="M1364.8,607.8l4.4-1l-4.4-1c-1.2-0.3-2.1-1.2-2.4-2.4l-1-4.4l-1,4.4c-0.3,1.2-1.2,2.1-2.4,2.4l-4.4,1l4.4,1&#10;&#9;&#9;&#9;c1.2,0.3,2.1,1.2,2.4,2.4l1,4.4l1-4.4C1362.7,609,1363.6,608.1,1364.8,607.8z" style="fill: rgb(252, 250, 247);"/>
		<path class="st1" d="M961.7,115.5l5-1.1l-5-1.1c-1.4-0.3-2.4-1.4-2.7-2.7l-1.1-5l-1.1,5c-0.3,1.4-1.4,2.4-2.7,2.7l-5,1.1l5,1.1&#10;&#9;&#9;&#9;c1.4,0.3,2.4,1.4,2.7,2.7l1.1,5l1.1-5C959.3,116.9,960.3,115.8,961.7,115.5z" style="fill: rgb(252, 250, 247);"/>
		
		
		
		
		
		<path class="st1" d="M331.9,75.1l4.4-1l-4.4-1c-1.2-0.3-2.1-1.2-2.4-2.4l-1-4.4l-1,4.4c-0.3,1.2-1.2,2.1-2.4,2.4l-4.4,1l4.4,1&#10;&#9;&#9;&#9;c1.2,0.3,2.1,1.2,2.4,2.4l1,4.4l1-4.4C329.8,76.3,330.7,75.3,331.9,75.1z" style="fill: rgb(252, 250, 247);"/>
		<path class="st1" d="M806.3,68.1l4.4-1l-4.4-1c-1.2-0.3-2.1-1.2-2.4-2.4l-1-4.4l-1,4.4c-0.3,1.2-1.2,2.1-2.4,2.4l-4.4,1l4.4,1&#10;&#9;&#9;&#9;c1.2,0.3,2.1,1.2,2.4,2.4l1,4.4l1-4.4C804.1,69.3,805.1,68.4,806.3,68.1z" style="fill: rgb(252, 250, 247);"/>
		
		<path class="st1" d="M131.7,612.8l4.4-1l-4.4-1c-1.2-0.3-2.1-1.2-2.4-2.4l-1-4.4l-1,4.4c-0.3,1.2-1.2,2.1-2.4,2.4l-4.4,1l4.4,1&#10;&#9;&#9;&#9;c1.2,0.3,2.1,1.2,2.4,2.4l1,4.4l1-4.4C129.6,614,130.5,613.1,131.7,612.8z" style="fill: rgb(252, 250, 247);"/>
		<path class="st1" d="M932.7,1154.5l4.4-1l-4.4-1c-1.2-0.3-2.1-1.2-2.4-2.4l-1-4.4l-1,4.4c-0.3,1.2-1.2,2.1-2.4,2.4l-4.4,1l4.4,1&#10;&#9;&#9;&#9;c1.2,0.3,2.1,1.2,2.4,2.4l1,4.4l1-4.4C930.6,1155.7,931.5,1154.8,932.7,1154.5z" style="fill: rgb(252, 250, 247);" transform="matrix(0.43423303422782505, 0, 0, 0.43423303422782505, 83.27453712924688, 63.68292707552369)"/>
		<path class="st1" d="M379.6,1316.1l4.4-1l-4.4-1c-1.2-0.3-2.1-1.2-2.4-2.4l-1-4.4l-1,4.4c-0.3,1.2-1.2,2.1-2.4,2.4l-4.4,1l4.4,1&#10;&#9;&#9;&#9;c1.2,0.3,2.1,1.2,2.4,2.4l1,4.4l1-4.4C377.5,1317.3,378.4,1316.3,379.6,1316.1z" style="fill: rgb(252, 250, 247);"/>
		
		
		<path d="M 734.5 154.899994 A 4.5 4.5 0 0 1 730 159.399994 A 4.5 4.5 0 0 1 725.5 154.899994 A 4.5 4.5 0 0 1 730 150.399994 A 4.5 4.5 0 0 1 734.5 154.899994 Z" class="st1" style="fill: rgb(252, 250, 247);"/>
		<path d="M 1243.5 598.099976 A 4.5 4.5 0 0 1 1239 602.599976 A 4.5 4.5 0 0 1 1234.5 598.099976 A 4.5 4.5 0 0 1 1239 593.599976 A 4.5 4.5 0 0 1 1243.5 598.099976 Z" class="st1" style="fill: rgb(252, 250, 247);" transform="matrix(0.43423303422782505, 0, 0, 0.43423303422782505, 83.27453712924688, 63.68292707552369)"/>
		
		<path d="M 1326.900024 989.099976 A 4.5 4.5 0 0 1 1322.400024 993.599976 A 4.5 4.5 0 0 1 1317.900024 989.099976 A 4.5 4.5 0 0 1 1322.400024 984.599976 A 4.5 4.5 0 0 1 1326.900024 989.099976 Z" class="st1" style="fill: rgb(252, 250, 247);" transform="matrix(0.43423303422782505, 0, 0, 0.43423303422782505, 83.27453712924688, 63.68292707552369)"/>
		<path d="M 600.599976 1314.099976 A 4.5 4.5 0 0 1 596.099976 1318.599976 A 4.5 4.5 0 0 1 591.599976 1314.099976 A 4.5 4.5 0 0 1 596.099976 1309.599976 A 4.5 4.5 0 0 1 600.599976 1314.099976 Z" class="st1" style="fill: rgb(252, 250, 247);"/>
		<path d="M 929.200012 1241.400024 A 4.5 4.5 0 0 1 924.700012 1245.900024 A 4.5 4.5 0 0 1 920.200012 1241.400024 A 4.5 4.5 0 0 1 924.700012 1236.900024 A 4.5 4.5 0 0 1 929.200012 1241.400024 Z" class="st1" style="fill: rgb(252, 250, 247);" transform="matrix(0.43423303422782505, 0, 0, 0.43423303422782505, 83.27453712924688, 63.68292707552369)"/>
		<path d="M 1358.5 1219.800049 A 4.5 4.5 0 0 1 1354 1224.300049 A 4.5 4.5 0 0 1 1349.5 1219.800049 A 4.5 4.5 0 0 1 1354 1215.300049 A 4.5 4.5 0 0 1 1358.5 1219.800049 Z" class="st1" style="fill: rgb(252, 250, 247);"/>
		<path d="M 1101.199951 1292 A 4.5 4.5 0 0 1 1096.699951 1296.5 A 4.5 4.5 0 0 1 1092.199951 1292 A 4.5 4.5 0 0 1 1096.699951 1287.5 A 4.5 4.5 0 0 1 1101.199951 1292 Z" class="st1" style="fill: rgb(252, 250, 247);"/>
		<path d="M 825.299988 1336.199951 A 4.5 4.5 0 0 1 820.799988 1340.699951 A 4.5 4.5 0 0 1 816.299988 1336.199951 A 4.5 4.5 0 0 1 820.799988 1331.699951 A 4.5 4.5 0 0 1 825.299988 1336.199951 Z" class="st1" style="fill: rgb(252, 250, 247);"/>
		<path d="M 1067.5 1170 A 4.5 4.5 0 0 1 1063 1174.5 A 4.5 4.5 0 0 1 1058.5 1170 A 4.5 4.5 0 0 1 1063 1165.5 A 4.5 4.5 0 0 1 1067.5 1170 Z" class="st1" style="fill: rgb(252, 250, 247);" transform="matrix(0.43423303422782505, 0, 0, 0.43423303422782505, 83.27453712924688, 63.68292707552369)"/>
		<path class="st1" d="M635.5,1294.9c0,1.7,0,3,0,3S635.5,1296.6,635.5,1294.9s0-3,0-3S635.5,1293.3,635.5,1294.9z" style="fill: rgb(252, 250, 247);"/>
		<path d="M 316.5 957.799988 A 3 3 0 0 1 313.5 960.799988 A 3 3 0 0 1 310.5 957.799988 A 3 3 0 0 1 313.5 954.799988 A 3 3 0 0 1 316.5 957.799988 Z" class="st1" style="fill: rgb(252, 250, 247);" transform="matrix(0.43423303422782505, 0, 0, 0.43423303422782505, 83.27453712924688, 63.68292707552369)"/>
		
		
		
		
		<path d="M 1365.099976 840.599976 A 3 3 0 0 1 1362.099976 843.599976 A 3 3 0 0 1 1359.099976 840.599976 A 3 3 0 0 1 1362.099976 837.599976 A 3 3 0 0 1 1365.099976 840.599976 Z" class="st1" style="fill: rgb(252, 250, 247);"/>
		<path d="M 1298 184.199997 A 2 2 0 0 1 1296 186.199997 A 2 2 0 0 1 1294 184.199997 A 2 2 0 0 1 1296 182.199997 A 2 2 0 0 1 1298 184.199997 Z" class="st1" style="fill: rgb(252, 250, 247);"/>
		
		
		<path d="M 984.799988 227.600006 A 3 3 0 0 1 981.799988 230.600006 A 3 3 0 0 1 978.799988 227.600006 A 3 3 0 0 1 981.799988 224.600006 A 3 3 0 0 1 984.799988 227.600006 Z" class="st1" style="fill: rgb(252, 250, 247);"/>
		<path d="M 870.299988 205.300003 A 3 3 0 0 1 867.299988 208.300003 A 3 3 0 0 1 864.299988 205.300003 A 3 3 0 0 1 867.299988 202.300003 A 3 3 0 0 1 870.299988 205.300003 Z" class="st1" style="fill: rgb(252, 250, 247);"/>
		
		<path d="M 337.5 885.599976 A 3 3 0 0 1 334.5 888.599976 A 3 3 0 0 1 331.5 885.599976 A 3 3 0 0 1 334.5 882.599976 A 3 3 0 0 1 337.5 885.599976 Z" class="st1" style="fill: rgb(252, 250, 247);" transform="matrix(0.43423303422782505, 0, 0, 0.43423303422782505, 83.27453712924688, 63.68292707552369)"/>
		<path d="M 602.400024 1171.5 A 3 3 0 0 1 599.400024 1174.5 A 3 3 0 0 1 596.400024 1171.5 A 3 3 0 0 1 599.400024 1168.5 A 3 3 0 0 1 602.400024 1171.5 Z" class="st1" style="fill: rgb(252, 250, 247);" transform="matrix(0.43423303422782505, 0, 0, 0.43423303422782505, 83.27453712924688, 63.68292707552369)"/>
		
		<path d="M 1293.800049 704.099976 A 3 3 0 0 1 1290.800049 707.099976 A 3 3 0 0 1 1287.800049 704.099976 A 3 3 0 0 1 1290.800049 701.099976 A 3 3 0 0 1 1293.800049 704.099976 Z" class="st1" style="fill: rgb(252, 250, 247);" transform="matrix(0.43423303422782505, 0, 0, 0.43423303422782505, 83.27453712924688, 63.68292707552369)"/>
		<path d="M 1114.300049 70.099998 A 3 3 0 0 1 1111.300049 73.099998 A 3 3 0 0 1 1108.300049 70.099998 A 3 3 0 0 1 1111.300049 67.099998 A 3 3 0 0 1 1114.300049 70.099998 Z" class="st1" style="fill: rgb(252, 250, 247);"/>
		<path d="M 1240.5 479.200012 A 3 3 0 0 1 1237.5 482.200012 A 3 3 0 0 1 1234.5 479.200012 A 3 3 0 0 1 1237.5 476.200012 A 3 3 0 0 1 1240.5 479.200012 Z" class="st1" style="fill: rgb(252, 250, 247);" transform="matrix(0.43423303422782505, 0, 0, 0.43423303422782505, 83.27453712924688, 63.68292707552369)"/>
		<path d="M 352.600006 419 A 3 3 0 0 1 349.600006 422 A 3 3 0 0 1 346.600006 419 A 3 3 0 0 1 349.600006 416 A 3 3 0 0 1 352.600006 419 Z" class="st1" style="fill: rgb(252, 250, 247);" transform="matrix(0.43423303422782505, 0, 0, 0.43423303422782505, 83.27453712924688, 63.68292707552369)"/>
		<path d="M 36.799999 297.799988 A 3 3 0 0 1 33.799999 300.799988 A 3 3 0 0 1 30.799999 297.799988 A 3 3 0 0 1 33.799999 294.799988 A 3 3 0 0 1 36.799999 297.799988 Z" class="st1" style="fill: rgb(252, 250, 247);"/>
		<path d="M 599.400024 220.399994 A 3 3 0 0 1 596.400024 223.399994 A 3 3 0 0 1 593.400024 220.399994 A 3 3 0 0 1 596.400024 217.399994 A 3 3 0 0 1 599.400024 220.399994 Z" class="st1" style="fill: rgb(252, 250, 247);"/>
		
		<path d="M 602.599976 93.199997 A 3 3 0 0 1 599.599976 96.199997 A 3 3 0 0 1 596.599976 93.199997 A 3 3 0 0 1 599.599976 90.199997 A 3 3 0 0 1 602.599976 93.199997 Z" class="st1" style="fill: rgb(252, 250, 247);"/>
	<path d="M 82.30355834960938 699.2249755859375" style="fill: rgb(152, 227, 244); fill-opacity: 1; stroke: rgb(0, 0, 0); stroke-opacity: 1; stroke-width: 0; paint-order: fill;"/><path class="st1" d="M225.7,847.5l4.4-1l-4.4-1c-1.2-0.3-2.1-1.2-2.4-2.4l-1-4.4l-1,4.4c-0.3,1.2-1.2,2.1-2.4,2.4l-4.4,1l4.4,1&#10;&#9;&#9;&#9;c1.2,0.3,2.1,1.2,2.4,2.4l1,4.4l1-4.4C223.6,848.7,224.5,847.8,225.7,847.5z" style="fill: rgb(252, 250, 247);"/><path class="st1" d="M112,1121.5l4.4-1l-4.4-1c-1.2-0.3-2.1-1.2-2.4-2.4l-1-4.4l-1,4.4c-0.3,1.2-1.2,2.1-2.4,2.4l-4.4,1l4.4,1&#10;&#9;&#9;&#9;c1.2,0.3,2.1,1.2,2.4,2.4l1,4.4l1-4.4C109.9,1122.7,110.8,1121.8,112,1121.5z" style="fill: rgb(252, 250, 247);"/><path d="M 78.900002 717.200012 A 3 3 0 0 1 75.900002 720.200012 A 3 3 0 0 1 72.900002 717.200012 A 3 3 0 0 1 75.900002 714.200012 A 3 3 0 0 1 78.900002 717.200012 Z" class="st1" style="fill: rgb(252, 250, 247);"/><path d="M 138.899994 981.900024 A 3 3 0 0 1 135.899994 984.900024 A 3 3 0 0 1 132.899994 981.900024 A 3 3 0 0 1 135.899994 978.900024 A 3 3 0 0 1 138.899994 981.900024 Z" class="st1" style="fill: rgb(252, 250, 247);"/><path d="M 216.399994 1201.699951 A 3 3 0 0 1 213.399994 1204.699951 A 3 3 0 0 1 210.399994 1201.699951 A 3 3 0 0 1 213.399994 1198.699951 A 3 3 0 0 1 216.399994 1201.699951 Z" class="st1" style="fill: rgb(252, 250, 247);"/><g transform="matrix(0.43423315882682806, 0, 0, 0.43423315882682806, -97.20481851803737, -95.44201139999474)">
			
			
			
			<g>
				
				
			</g>
			
			<g transform="matrix(1, 0, 0, 1, 0, 32.551131717868515)">
				<g>
					<g>
						
							<path d="M 1208.099976 685.099976 A 438.799988 438.799988 0 0 1 769.299988 1123.899963 A 438.799988 438.799988 0 0 1 330.5 685.099976 A 438.799988 438.799988 0 0 1 769.299988 246.299988 A 438.799988 438.799988 0 0 1 1208.099976 685.099976 Z" transform="matrix(0.7071 -0.7071 0.7071 0.7071 -259.1165 744.5975)" class="st15" style="fill: rgb(152, 227, 244);"/>
						<g>
							<path class="st16" d="M439.3,512.6c-4.3,35.5-0.5,31.2-0.5,31.2c26.7,25.3,27.9,43.2,26.8,50.6c-0.7,5-0.3,10.1,1.8,14.6&#10;&#9;&#9;&#9;&#9;&#9;&#9;&#9;&#9;c2.8,6.1,7.5,10.9,12,14.6c9,7.2,17.2,15.2,24.7,24c17.7,20.9,38.2,27.7,38.2,27.7l16.6,8.8c5.1,2.7,8.7,7.4,10,13&#10;&#9;&#9;&#9;&#9;&#9;&#9;&#9;&#9;c3.3,13.7,12.8,18.6,20.7,20.3c6.9,1.5,11.8,7.5,11.9,14.6c-9,7-14.9,15-18.6,22.2c-5.5,10.6-5.2,23.2,0.6,33.6l15.6,28&#10;&#9;&#9;&#9;&#9;&#9;&#9;&#9;&#9;c13.9,20.7,13.3,28.6,11.8,31.5c-1.2,2.4-2.5,4.7-3.4,7.3l-17.9,52.2l-28,56.4c-17.7,47.1,2.4,59.5,2.4,59.5&#10;&#9;&#9;&#9;&#9;&#9;&#9;&#9;&#9;c8.7,27,37.9,7.5,37.9,7.5c-22.7,1.2-14.2-28.1-14.2-28.1c4.3-2.9,10.8-10.4,14.6-15.1c1.6-1.9,1.3-4.8-0.6-6.3&#10;&#9;&#9;&#9;&#9;&#9;&#9;&#9;&#9;c-10.1-7.9,9.7-13.4,9.7-13.4l3.2-16.2l8.1,1.6l5.4-13l8.8,1.7c4.6,0.9,9.3-0.9,12.1-4.5h0c1.8-2.3,2.3-5.3,1.3-8&#10;&#9;&#9;&#9;&#9;&#9;&#9;&#9;&#9;c-8.4-22.7-1.5-18.8,4.8-12.8c4.5,4.3,11.4,4.6,16.4,0.9l20.5-15.4l7.4-18.9c1.9-4.8,7.5-7.9,12.5-6.8&#10;&#9;&#9;&#9;&#9;&#9;&#9;&#9;&#9;c7.7,1.8,14.4,0.9,19.4-0.5c5.3-1.5,9.3-5.8,10.7-11.1l5.1-19c1.9-7.1,6.5-13,12.7-16.9c9.6-6,12-18,12-18l-18-14.8&#10;&#9;&#9;&#9;&#9;&#9;&#9;&#9;&#9;c-7.5-6.2-16.5-10-26.1-11.7c-18.8-3.4-11.8-18.3-11.8-18.3l-6-14.4c-3.4-8.2-10.7-14.2-19.5-16l-7.6-1.5l-14.1-14&#10;&#9;&#9;&#9;&#9;&#9;&#9;&#9;&#9;c-16.2-3.2-27.1-12.4-27.1-12.4c-8.7-13-21.7-4.3-21.7-4.3c-27.8,19.8-35-22.4-35-22.4l-14.1-21.1c7.8-18.2-16-4.6-16-4.6&#10;&#9;&#9;&#9;&#9;&#9;&#9;&#9;&#9;c-29.8,1.2-12.3-37.6-12.3-37.6c6.5-19,28.7-13.2,43.2-6.9c8.7,3.8,18.8,3.2,26.9-1.7c4.9-3,10.3-6.3,14.8-9&#10;&#9;&#9;&#9;&#9;&#9;&#9;&#9;&#9;c5-3,8.7-7.8,9.9-13.5c2.1-10,11.8-14.7,19.7-16.9c9.1-2.5,17.6-6.9,25.2-12.5l3.6-2.7c11.6-9.5,37-5.3,51.3-1.9&#10;&#9;&#9;&#9;&#9;&#9;&#9;&#9;&#9;c5,1.2,9.6-3,8.9-8.1l-5.4-39.6l-15.6-33.1c-5.9-12.6-16.5-22.3-29.5-27.2l-3.3-1.2c-36.4-57.8-32.7,9-32.7,9l-13.2,13&#10;&#9;&#9;&#9;&#9;&#9;&#9;&#9;&#9;c-7.3,7.2-18.9,7.4-26.5,0.5l-13.9-12.8C582.9,440,595,400.1,595,400.1l11.3-8.3c4-3,9.5-3,13.6-0.2l18.1,12.7&#10;&#9;&#9;&#9;&#9;&#9;&#9;&#9;&#9;c3.9,2.8,9.4,0.6,10.3-4.2l1.2-6.2c1.4-7.1,0.5-14.4-2.5-20.9l-11.1-24l-22.3-17.2c-3.8-2.9-9.3-2-11.9,2&#10;&#9;&#9;&#9;&#9;&#9;&#9;&#9;&#9;c-4.3,6.7-12.5,9.7-20.2,7.5l-33.7-9.7l-22.5-11.6c-42.1,28.2-79,63.5-109.1,104.1c6.1,13.1,11.9,27.1,16.5,38.6&#10;&#9;&#9;&#9;&#9;&#9;&#9;&#9;&#9;C439.2,478.7,441.3,495.8,439.3,512.6z" style="fill: rgb(124, 198, 54);"/>
							<path class="st16" d="M750.6,261.2c8.5,3.2,15.2,9.8,18.5,18.2c4.9,12.5,9.7,29.6,4,37.7l-3.1,37.4l1.4,21.4&#10;&#9;&#9;&#9;&#9;&#9;&#9;&#9;&#9;c0,0-7.6,70.2,21.8,83.8c3.4,1.5,7.3,0.4,9.4-2.7l19.7-29.4c3.4-5.2,9.1-8.6,15.3-8.7c5.6-0.1,13.9-2.8,23.9-13.7&#10;&#9;&#9;&#9;&#9;&#9;&#9;&#9;&#9;c4.1-4.4,9.8-7.1,15.8-6.8c10,0.5,26.4-4,37.2-35.1l15.1-22.5c7.1-10.5,11.7-22.5,13.7-35l3.4-21.9&#10;&#9;&#9;&#9;&#9;&#9;&#9;&#9;&#9;c-54.3-24-114.3-37.4-177.4-37.4c-12.6,0-25.1,0.6-37.5,1.6C736,253.2,742.1,258,750.6,261.2z" style="fill: rgb(124, 198, 54);"/>
							<path class="st16" d="M1139.1,804.8c-3.8-1.2-9-2.3-15.7-3c-8.6-0.9-16-6.5-19-14.6l-13.3-34.9l-6.6-27.2&#10;&#9;&#9;&#9;&#9;&#9;&#9;&#9;&#9;c-1.8-7.2-6.1-13.6-12.1-17.9l-17.7-12.6c-6.3-4.5-14.2-5.1-21.5-2.6c-4.9,1.7-12.3,1-23-7.6c0,0-10.6-2.1-13.7-11.6&#10;&#9;&#9;&#9;&#9;&#9;&#9;&#9;&#9;c-2.8-8.6-10.4-14.9-19.2-17.1L947,648l-18.4,7.6l-13,1.7l-8.1,19.5c0,0-53,26.1-41.7,69.1c0,0,7.4,40.8,39.4,42.9&#10;&#9;&#9;&#9;&#9;&#9;&#9;&#9;&#9;c0,0,61.7,0.9,51.7,15.8l9.6,51.1c0,0,9.8,7.5-3.2,29.3c-3.5,5.9-5.1,12.8-4.3,19.7l5.4,47.7c0,0,1.5,42.5,23.4,31.3&#10;&#9;&#9;&#9;&#9;&#9;&#9;&#9;&#9;c0,0,33,3.7,41.6-18.5l15.1-19.5l8.6-22.2l14-5.6c6.7-2.7,11.1-9.2,11-16.4c-0.1-13.5,2.6-34.9,20.2-43.6l43.8-37.2&#10;&#9;&#9;&#9;&#9;&#9;&#9;&#9;&#9;C1147.7,815.9,1146,807,1139.1,804.8z" style="fill: rgb(124, 198, 54);"/>
							<path class="st16" d="M1162.9,491c-3,4.1-8.5,5.7-13.2,3.7l-5.6-2.4c-2.7-1.1-4.4-3.7-4.6-6.5l-0.8-12.4&#10;&#9;&#9;&#9;&#9;&#9;&#9;&#9;&#9;c-0.1-0.8,1.1-1.1,1.4-0.3l4.2,10c0.8,2,3.5,2.4,4.8,0.7l5.5-6.9c0.2-0.3,0.4-0.6,0.6-0.9c-12-22.1-25.8-43-41.3-62.5&#10;&#9;&#9;&#9;&#9;&#9;&#9;&#9;&#9;c-1,0.3-2,0.6-3,1.1l-31.8,15c-13.6,6.4-25.6,15.8-35,27.5l-21,25.9c-32.1,20.4-8.5,43.3-8.5,43.3l-12.1,25.7l-15.4,13.8&#10;&#9;&#9;&#9;&#9;&#9;&#9;&#9;&#9;L975,551.1c-4.5-5.5-6.4-12.8-5-19.8l4.5-22.8c1-5.2-3.7-9.7-8.8-8.3c-10.8,2.8-15.1,10.5-16.8,17.2&#10;&#9;&#9;&#9;&#9;&#9;&#9;&#9;&#9;c-1.9,7.4-6.2,13.9-12.1,18.7c-23.6,18.9,13.5,24,13.5,24l-2.1,24.9l4.6,19.6c1.1,4.5-3,8.6-7.5,7.5l-9.6-2.3&#10;&#9;&#9;&#9;&#9;&#9;&#9;&#9;&#9;c-8.1-1.9-16.3,2.5-19.2,10.2l-1.8,4.9c-2.3,6.2,2.3,12.8,9,12.7l27-0.4c3.7-0.1,7.1-1.7,9.5-4.4c7-8.1,16.5-13.7,27-15.8&#10;&#9;&#9;&#9;&#9;&#9;&#9;&#9;&#9;l11.7-2.4l4.9-0.3c10.1-0.7,19.8,4.4,25.1,13.1l6,9.9c4,6.6,11.7,10.1,19.3,8.8l17.9-3.1l17.5-17.6l19.5,1&#10;&#9;&#9;&#9;&#9;&#9;&#9;&#9;&#9;c44.8,44,2.8,28.7,2.8,28.7l-10-2c-8.2-1.6-16.8,0.6-23.2,5.9l-5.5,4.5c-2.7,2.2-1.9,6.6,1.5,7.7l18.3,6&#10;&#9;&#9;&#9;&#9;&#9;&#9;&#9;&#9;c3.3,1.1,5.4,4.4,5,7.9l-3.6,26.6c-1.1,8.2,0.1,16.6,3.6,24.1l15.2,33.4c4.4,9.7,13.1,16.7,23.4,19.1l12.3,2.8&#10;&#9;&#9;&#9;&#9;&#9;&#9;&#9;&#9;c8.2,1.9,16.7-0.1,23.2-5.4l7.4-6c4.2-3.4,5.1-9.4,2.1-13.8l-7.3-10.9c-2.9-4.4-8.1-6.8-13.3-6.3c-3.2,0.3-6.1-2-6.5-5.2&#10;&#9;&#9;&#9;&#9;&#9;&#9;&#9;&#9;l-2.1-16.3c-0.4-3,3.1-5,5.5-3.2l18.6,14.4c4.4,3.4,9.1,6.3,14,8.8l12.5,6.2c3.5-22.3,5.3-45.1,5.3-68.4&#10;&#9;&#9;&#9;&#9;&#9;&#9;&#9;&#9;C1208,615.4,1191.8,549.5,1162.9,491z" style="fill: rgb(124, 198, 54);"/>
							<path class="st5" d="M990.2,305.9c37.9,64.9,59.6,140.4,59.6,220.9c0,242.3-196.5,438.8-438.8,438.8&#10;&#9;&#9;&#9;&#9;&#9;&#9;&#9;&#9;c-80.6,0-156-21.7-220.9-59.6c76.1,130.3,217.4,217.9,379.2,217.9c242.3,0,438.8-196.5,438.8-438.8&#10;&#9;&#9;&#9;&#9;&#9;&#9;&#9;&#9;C1208,523.3,1120.5,382,990.2,305.9z" style="opacity: 0.1; fill: rgb(7, 7, 7);"/>
						</g>
					</g>
				</g>
				
				
				<g>
					<path class="st1" d="M959.9,500c-2.4-12.6-9.8-23.4-20.1-30.3c-3.5-20.1-21-35.3-42.1-35.3c-17.6,0-32.7,10.6-39.2,25.8&#10;&#9;&#9;&#9;&#9;&#9;&#9;c-6.2-2.4-12.9-3.7-19.9-3.7c-26.5,0-48.6,18.6-53.9,43.5h-3.6c-12.3,0-22.3,10-22.3,22.3c0,12.3,10,22.3,22.3,22.3h13.4h88.2&#10;&#9;&#9;&#9;&#9;&#9;&#9;h0.1h61.6h14c12.3,0,22.3-10,22.3-22.3C980.7,510.4,971.5,500.7,959.9,500z" style="fill: rgb(252, 250, 247);"/>
					<path class="st19" d="M959.9,500c-2.4-12.6-9.8-23.4-20.1-30.3c-3.5-20.1-21-35.3-42.1-35.3c-17.5,0-32.6,10.5-39.2,25.6v84.7&#10;&#9;&#9;&#9;&#9;&#9;&#9;h24.2h0.1h61.6h14c12.3,0,22.3-10,22.3-22.3C980.7,510.4,971.5,500.7,959.9,500z" style="opacity: 0.05; fill: rgb(7, 7, 7);"/>
				</g>
				<g>
					
					
				<path class="st1" d="M447.9,542.8H441c-3.5-32.1-30.7-57.1-63.8-57.1c-19.2,0-36.4,8.4-48.1,21.7c-5.6-2.5-11.8-3.9-18.3-3.9&#10;&#9;&#9;&#9;&#9;&#9;&#9;c-22.8,0-41.6,17.2-44.2,39.3c-0.2,1.7-0.3,3.4-0.3,5.2c0,17,9.6,31.8,23.7,39.3h35.2c0.5,0.8,1.1,1.5,1.7,2.2&#10;&#9;&#9;&#9;&#9;&#9;&#9;c1.7-0.6,3.3-1.4,4.9-2.2h97.6h18.6c12,0,21.7-9.7,21.7-21.7v-1.1C469.6,552.6,459.9,542.8,447.9,542.8z" style="fill: rgb(252, 250, 247);"/></g>
				
			<g>
					<path class="st1" d="M1037.5,1046.1c0.2-1.5,0.3-2.9,0.3-4.4c0-19.3-15.7-35-35-35c-9.6,0-18.3,3.9-24.6,10.1&#10;&#9;&#9;&#9;&#9;&#9;&#9;c-7-3.7-15-5.7-23.5-5.7c-22.7,0-42,14.9-48.6,35.4c-12.2,2.3-21.4,12.9-21.4,25.8v0c0,14.5,11.7,26.2,26.2,26.2h8h71.3h45.9&#10;&#9;&#9;&#9;&#9;&#9;&#9;c14.5,0,26.2-11.7,26.2-26.2v0C1062.6,1058.1,1051.5,1046.7,1037.5,1046.1z" style="fill: rgb(252, 250, 247);"/>
					<path class="st19" d="M1037.5,1046.1c0.2-1.5,0.3-2.9,0.3-4.4c0-19.3-15.7-35-35-35c-9.6,0-18.3,3.9-24.6,10.1&#10;&#9;&#9;&#9;&#9;&#9;&#9;c-1.5-0.8-3-1.4-4.6-2.1v83.7h16.7h45.9c14.5,0,26.2-11.7,26.2-26.2v0C1062.6,1058.1,1051.5,1046.7,1037.5,1046.1z" style="opacity: 0.05; fill: rgb(7, 7, 7);"/>
				</g></g>
		</g></g>
</svg>