<?xml version="1.0" encoding="utf-8"?>
<svg id="master-artboard" viewBox="0 0 125.85570526123047 279.31103515625" version="1.1" xmlns="http://www.w3.org/2000/svg" x="0px" y="0px" style="enable-background:new 0 0 1400 1400;" width="125.85570526123047px" height="279.31103515625px"><rect id="ee-background" x="0" y="0" width="125.85570526123047" height="279.31103515625" style="fill: white; fill-opacity: 0; pointer-events: none;"/>


<g transform="matrix(1, 0, 0, 1, 0, -7.105427357601002e-15)">
		<path class="st1" d="M1094.4,826.6c-1.7-4.3-11.4-14.6-38.4-29.7c-6.5,13.5-13.7,26.6-21.7,39.1&#10;&#9;&#9;&#9;C1074.2,835.7,1090.5,830,1094.4,826.6z" style="fill: rgb(252, 250, 247);"/>
		
		
		
		<path class="st1" d="M1219.2,349.6l4.4-1l-4.4-1c-1.2-0.3-2.1-1.2-2.4-2.4l-1-4.4l-1,4.4c-0.3,1.2-1.2,2.1-2.4,2.4l-4.4,1l4.4,1&#10;&#9;&#9;&#9;c1.2,0.3,2.1,1.2,2.4,2.4l1,4.4l1-4.4C1217,350.8,1218,349.9,1219.2,349.6z" style="fill: rgb(252, 250, 247);"/>
		<path class="st1" d="M1353.4,73.3l4.4-1l-4.4-1c-1.2-0.3-2.1-1.2-2.4-2.4l-1-4.4l-1,4.4c-0.3,1.2-1.2,2.1-2.4,2.4l-4.4,1l4.4,1&#10;&#9;&#9;&#9;c1.2,0.3,2.1,1.2,2.4,2.4l1,4.4l1-4.4C1351.3,74.5,1352.2,73.6,1353.4,73.3z" style="fill: rgb(252, 250, 247);"/>
		<path class="st1" d="M1364.8,607.8l4.4-1l-4.4-1c-1.2-0.3-2.1-1.2-2.4-2.4l-1-4.4l-1,4.4c-0.3,1.2-1.2,2.1-2.4,2.4l-4.4,1l4.4,1&#10;&#9;&#9;&#9;c1.2,0.3,2.1,1.2,2.4,2.4l1,4.4l1-4.4C1362.7,609,1363.6,608.1,1364.8,607.8z" style="fill: rgb(252, 250, 247);"/>
		<path class="st1" d="M961.7,115.5l5-1.1l-5-1.1c-1.4-0.3-2.4-1.4-2.7-2.7l-1.1-5l-1.1,5c-0.3,1.4-1.4,2.4-2.7,2.7l-5,1.1l5,1.1&#10;&#9;&#9;&#9;c1.4,0.3,2.4,1.4,2.7,2.7l1.1,5l1.1-5C959.3,116.9,960.3,115.8,961.7,115.5z" style="fill: rgb(252, 250, 247);"/>
		
		
		
		
		
		<path class="st1" d="M331.9,75.1l4.4-1l-4.4-1c-1.2-0.3-2.1-1.2-2.4-2.4l-1-4.4l-1,4.4c-0.3,1.2-1.2,2.1-2.4,2.4l-4.4,1l4.4,1&#10;&#9;&#9;&#9;c1.2,0.3,2.1,1.2,2.4,2.4l1,4.4l1-4.4C329.8,76.3,330.7,75.3,331.9,75.1z" style="fill: rgb(252, 250, 247);"/>
		<path class="st1" d="M806.3,68.1l4.4-1l-4.4-1c-1.2-0.3-2.1-1.2-2.4-2.4l-1-4.4l-1,4.4c-0.3,1.2-1.2,2.1-2.4,2.4l-4.4,1l4.4,1&#10;&#9;&#9;&#9;c1.2,0.3,2.1,1.2,2.4,2.4l1,4.4l1-4.4C804.1,69.3,805.1,68.4,806.3,68.1z" style="fill: rgb(252, 250, 247);"/>
		
		<path class="st1" d="M131.7,612.8l4.4-1l-4.4-1c-1.2-0.3-2.1-1.2-2.4-2.4l-1-4.4l-1,4.4c-0.3,1.2-1.2,2.1-2.4,2.4l-4.4,1l4.4,1&#10;&#9;&#9;&#9;c1.2,0.3,2.1,1.2,2.4,2.4l1,4.4l1-4.4C129.6,614,130.5,613.1,131.7,612.8z" style="fill: rgb(252, 250, 247);"/>
		<path class="st1" d="M932.7,1154.5l4.4-1l-4.4-1c-1.2-0.3-2.1-1.2-2.4-2.4l-1-4.4l-1,4.4c-0.3,1.2-1.2,2.1-2.4,2.4l-4.4,1l4.4,1&#10;&#9;&#9;&#9;c1.2,0.3,2.1,1.2,2.4,2.4l1,4.4l1-4.4C930.6,1155.7,931.5,1154.8,932.7,1154.5z" style="fill: rgb(252, 250, 247);"/>
		<path class="st1" d="M379.6,1316.1l4.4-1l-4.4-1c-1.2-0.3-2.1-1.2-2.4-2.4l-1-4.4l-1,4.4c-0.3,1.2-1.2,2.1-2.4,2.4l-4.4,1l4.4,1&#10;&#9;&#9;&#9;c1.2,0.3,2.1,1.2,2.4,2.4l1,4.4l1-4.4C377.5,1317.3,378.4,1316.3,379.6,1316.1z" style="fill: rgb(252, 250, 247);"/>
		
		
		<path d="M 734.5 154.899994 A 4.5 4.5 0 0 1 730 159.399994 A 4.5 4.5 0 0 1 725.5 154.899994 A 4.5 4.5 0 0 1 730 150.399994 A 4.5 4.5 0 0 1 734.5 154.899994 Z" class="st1" style="fill: rgb(252, 250, 247);"/>
		<path d="M 1243.5 598.099976 A 4.5 4.5 0 0 1 1239 602.599976 A 4.5 4.5 0 0 1 1234.5 598.099976 A 4.5 4.5 0 0 1 1239 593.599976 A 4.5 4.5 0 0 1 1243.5 598.099976 Z" class="st1" style="fill: rgb(252, 250, 247);"/>
		
		<path d="M 1326.900024 989.099976 A 4.5 4.5 0 0 1 1322.400024 993.599976 A 4.5 4.5 0 0 1 1317.900024 989.099976 A 4.5 4.5 0 0 1 1322.400024 984.599976 A 4.5 4.5 0 0 1 1326.900024 989.099976 Z" class="st1" style="fill: rgb(252, 250, 247);"/>
		<path d="M 600.599976 1314.099976 A 4.5 4.5 0 0 1 596.099976 1318.599976 A 4.5 4.5 0 0 1 591.599976 1314.099976 A 4.5 4.5 0 0 1 596.099976 1309.599976 A 4.5 4.5 0 0 1 600.599976 1314.099976 Z" class="st1" style="fill: rgb(252, 250, 247);"/>
		<path d="M 929.200012 1241.400024 A 4.5 4.5 0 0 1 924.700012 1245.900024 A 4.5 4.5 0 0 1 920.200012 1241.400024 A 4.5 4.5 0 0 1 924.700012 1236.900024 A 4.5 4.5 0 0 1 929.200012 1241.400024 Z" class="st1" style="fill: rgb(252, 250, 247);"/>
		<path d="M 1358.5 1219.800049 A 4.5 4.5 0 0 1 1354 1224.300049 A 4.5 4.5 0 0 1 1349.5 1219.800049 A 4.5 4.5 0 0 1 1354 1215.300049 A 4.5 4.5 0 0 1 1358.5 1219.800049 Z" class="st1" style="fill: rgb(252, 250, 247);"/>
		<path d="M 1101.199951 1292 A 4.5 4.5 0 0 1 1096.699951 1296.5 A 4.5 4.5 0 0 1 1092.199951 1292 A 4.5 4.5 0 0 1 1096.699951 1287.5 A 4.5 4.5 0 0 1 1101.199951 1292 Z" class="st1" style="fill: rgb(252, 250, 247);"/>
		<path d="M 825.299988 1336.199951 A 4.5 4.5 0 0 1 820.799988 1340.699951 A 4.5 4.5 0 0 1 816.299988 1336.199951 A 4.5 4.5 0 0 1 820.799988 1331.699951 A 4.5 4.5 0 0 1 825.299988 1336.199951 Z" class="st1" style="fill: rgb(252, 250, 247);"/>
		<path d="M 1067.5 1170 A 4.5 4.5 0 0 1 1063 1174.5 A 4.5 4.5 0 0 1 1058.5 1170 A 4.5 4.5 0 0 1 1063 1165.5 A 4.5 4.5 0 0 1 1067.5 1170 Z" class="st1" style="fill: rgb(252, 250, 247);"/>
		<path class="st1" d="M635.5,1294.9c0,1.7,0,3,0,3S635.5,1296.6,635.5,1294.9s0-3,0-3S635.5,1293.3,635.5,1294.9z" style="fill: rgb(252, 250, 247);"/>
		<path d="M 316.5 957.799988 A 3 3 0 0 1 313.5 960.799988 A 3 3 0 0 1 310.5 957.799988 A 3 3 0 0 1 313.5 954.799988 A 3 3 0 0 1 316.5 957.799988 Z" class="st1" style="fill: rgb(252, 250, 247);"/>
		
		
		
		
		<path d="M 1365.099976 840.599976 A 3 3 0 0 1 1362.099976 843.599976 A 3 3 0 0 1 1359.099976 840.599976 A 3 3 0 0 1 1362.099976 837.599976 A 3 3 0 0 1 1365.099976 840.599976 Z" class="st1" style="fill: rgb(252, 250, 247);"/>
		<path d="M 1298 184.199997 A 2 2 0 0 1 1296 186.199997 A 2 2 0 0 1 1294 184.199997 A 2 2 0 0 1 1296 182.199997 A 2 2 0 0 1 1298 184.199997 Z" class="st1" style="fill: rgb(252, 250, 247);"/>
		
		
		<path d="M 984.799988 227.600006 A 3 3 0 0 1 981.799988 230.600006 A 3 3 0 0 1 978.799988 227.600006 A 3 3 0 0 1 981.799988 224.600006 A 3 3 0 0 1 984.799988 227.600006 Z" class="st1" style="fill: rgb(252, 250, 247);"/>
		<path d="M 870.299988 205.300003 A 3 3 0 0 1 867.299988 208.300003 A 3 3 0 0 1 864.299988 205.300003 A 3 3 0 0 1 867.299988 202.300003 A 3 3 0 0 1 870.299988 205.300003 Z" class="st1" style="fill: rgb(252, 250, 247);"/>
		
		<path d="M 337.5 885.599976 A 3 3 0 0 1 334.5 888.599976 A 3 3 0 0 1 331.5 885.599976 A 3 3 0 0 1 334.5 882.599976 A 3 3 0 0 1 337.5 885.599976 Z" class="st1" style="fill: rgb(252, 250, 247);"/>
		<path d="M 602.400024 1171.5 A 3 3 0 0 1 599.400024 1174.5 A 3 3 0 0 1 596.400024 1171.5 A 3 3 0 0 1 599.400024 1168.5 A 3 3 0 0 1 602.400024 1171.5 Z" class="st1" style="fill: rgb(252, 250, 247);"/>
		
		<path d="M 1293.800049 704.099976 A 3 3 0 0 1 1290.800049 707.099976 A 3 3 0 0 1 1287.800049 704.099976 A 3 3 0 0 1 1290.800049 701.099976 A 3 3 0 0 1 1293.800049 704.099976 Z" class="st1" style="fill: rgb(252, 250, 247);"/>
		<path d="M 1114.300049 70.099998 A 3 3 0 0 1 1111.300049 73.099998 A 3 3 0 0 1 1108.300049 70.099998 A 3 3 0 0 1 1111.300049 67.099998 A 3 3 0 0 1 1114.300049 70.099998 Z" class="st1" style="fill: rgb(252, 250, 247);"/>
		<path d="M 1240.5 479.200012 A 3 3 0 0 1 1237.5 482.200012 A 3 3 0 0 1 1234.5 479.200012 A 3 3 0 0 1 1237.5 476.200012 A 3 3 0 0 1 1240.5 479.200012 Z" class="st1" style="fill: rgb(252, 250, 247);"/>
		<path d="M 352.600006 419 A 3 3 0 0 1 349.600006 422 A 3 3 0 0 1 346.600006 419 A 3 3 0 0 1 349.600006 416 A 3 3 0 0 1 352.600006 419 Z" class="st1" style="fill: rgb(252, 250, 247);"/>
		
		<path d="M 599.400024 220.399994 A 3 3 0 0 1 596.400024 223.399994 A 3 3 0 0 1 593.400024 220.399994 A 3 3 0 0 1 596.400024 217.399994 A 3 3 0 0 1 599.400024 220.399994 Z" class="st1" style="fill: rgb(252, 250, 247);"/>
		
		<path d="M 602.599976 93.199997 A 3 3 0 0 1 599.599976 96.199997 A 3 3 0 0 1 596.599976 93.199997 A 3 3 0 0 1 599.599976 90.199997 A 3 3 0 0 1 602.599976 93.199997 Z" class="st1" style="fill: rgb(252, 250, 247);"/>
	<path class="st1" d="M225.7,847.5l4.4-1l-4.4-1c-1.2-0.3-2.1-1.2-2.4-2.4l-1-4.4l-1,4.4c-0.3,1.2-1.2,2.1-2.4,2.4l-4.4,1l4.4,1&#10;&#9;&#9;&#9;c1.2,0.3,2.1,1.2,2.4,2.4l1,4.4l1-4.4C223.6,848.7,224.5,847.8,225.7,847.5z" style="fill: rgb(252, 250, 247);"/><path class="st1" d="M112,1121.5l4.4-1l-4.4-1c-1.2-0.3-2.1-1.2-2.4-2.4l-1-4.4l-1,4.4c-0.3,1.2-1.2,2.1-2.4,2.4l-4.4,1l4.4,1&#10;&#9;&#9;&#9;c1.2,0.3,2.1,1.2,2.4,2.4l1,4.4l1-4.4C109.9,1122.7,110.8,1121.8,112,1121.5z" style="fill: rgb(252, 250, 247);"/><path d="M 78.900002 717.200012 A 3 3 0 0 1 75.900002 720.200012 A 3 3 0 0 1 72.900002 717.200012 A 3 3 0 0 1 75.900002 714.200012 A 3 3 0 0 1 78.900002 717.200012 Z" class="st1" style="fill: rgb(252, 250, 247);"/><path d="M 138.899994 981.900024 A 3 3 0 0 1 135.899994 984.900024 A 3 3 0 0 1 132.899994 981.900024 A 3 3 0 0 1 135.899994 978.900024 A 3 3 0 0 1 138.899994 981.900024 Z" class="st1" style="fill: rgb(252, 250, 247);"/><path d="M 216.399994 1201.699951 A 3 3 0 0 1 213.399994 1204.699951 A 3 3 0 0 1 210.399994 1201.699951 A 3 3 0 0 1 213.399994 1198.699951 A 3 3 0 0 1 216.399994 1201.699951 Z" class="st1" style="fill: rgb(252, 250, 247);"/><g transform="matrix(1, 0, 0, 1, -1280.3445141797492, 12.400431043334635)">
			
			
			
			<g>
				
				
			</g>
			
			
		<g transform="matrix(1, 0, 0, 1, 218.55759867711714, -153.45533524138008)">
				
				<g>
					<g>
						<g>
							<path class="st11" d="M1149.5,332.1c0,39.5-27.4,71.6-27.4,71.6s-27.4-32.1-27.4-71.6s12.2-71.6,27.4-71.6&#10;&#9;&#9;&#9;&#9;&#9;&#9;&#9;&#9;C1137.3,260.5,1149.5,292.5,1149.5,332.1z" style="fill: rgb(247, 188, 40);"/>
							<path class="st2" d="M1144.4,318.7c0,32.2-22.3,58.3-22.3,58.3s-22.3-26.1-22.3-58.3c0-32.2,10-58.3,22.3-58.3&#10;&#9;&#9;&#9;&#9;&#9;&#9;&#9;&#9;S1144.4,286.5,1144.4,318.7z" style="fill: rgb(255, 201, 82);"/>
							<path class="st12" d="M1139,304.5c0,24.3-16.8,44-16.8,44s-16.8-19.7-16.8-44s7.5-44,16.8-44&#10;&#9;&#9;&#9;&#9;&#9;&#9;&#9;&#9;C1131.5,260.5,1139,280.2,1139,304.5z" style="fill: rgb(252, 211, 131);"/>
						</g>
						<g>
							<g>
								<path class="st13" d="M1101.7,301.8l-36,21.8v-35.6c0-26.1,13.7-50.3,36-63.9l0,0V301.8z" style="fill: rgb(211, 76, 45);"/>
								<path class="st13" d="M1142.7,301.8l36,21.8v-35.6c0-26.1-13.7-50.3-36-63.9v0V301.8z" style="fill: rgb(211, 76, 45);"/>
							</g>
							<path class="st13" d="M1157.8,216.4c0-29.6-13.5-57-35.6-72.1l0,0l0,0c-22.1,15.1-35.6,42.5-35.6,72.1v78.9l0,0&#10;&#9;&#9;&#9;&#9;&#9;&#9;&#9;&#9;c22.7,11.2,48.4,11.2,71.1,0l0,0V216.4z" style="fill: rgb(211, 76, 45);"/>
							<path class="st1" d="M1091.2,187.1c-3,9.2-4.6,19.2-4.6,29.3v78.9c22.7,11.2,48.4,11.2,71.1,0l0,0v-78.9&#10;&#9;&#9;&#9;&#9;&#9;&#9;&#9;&#9;c0-10.2-1.6-20.1-4.6-29.3H1091.2z" style="fill: rgb(252, 250, 247);"/>
							<path class="st13" d="M1128.6,323.5h-12.7c-0.2,0-0.4-0.2-0.4-0.4v-79.3c0-5.1,2.4-9.9,6.5-12.9l0,0c0.1-0.1,0.3-0.1,0.5,0&#10;&#9;&#9;&#9;&#9;&#9;&#9;&#9;&#9;l0,0c4.1,3,6.5,7.8,6.5,12.9v79.3C1128.9,323.4,1128.8,323.5,1128.6,323.5z" style="fill: rgb(211, 76, 45);"/>
							<g>
								<path class="st13" d="M1134.1,208c0,6.6-5.3,11.9-11.9,11.9c-6.6,0-11.9-5.3-11.9-11.9c0-6.6,5.3-11.9,11.9-11.9&#10;&#9;&#9;&#9;&#9;&#9;&#9;&#9;&#9;&#9;C1128.8,196.1,1134.1,201.5,1134.1,208z" style="fill: rgb(211, 76, 45);"/>
								<path class="st6" d="M1122.2,215.3c-4,0-7.3-3.3-7.3-7.3c0-4,3.3-7.3,7.3-7.3c4,0,7.3,3.3,7.3,7.3&#10;&#9;&#9;&#9;&#9;&#9;&#9;&#9;&#9;&#9;C1129.5,212.1,1126.2,215.3,1122.2,215.3z" style="fill: rgb(107, 113, 114);"/>
							</g>
						</g>
					</g>
					<path class="st14" d="M1157.8,236.1v-19.6c0-2.3-0.1-4.5-0.3-6.8c0-0.6-0.1-1.3-0.2-1.9c-0.2-1.7-0.4-3.5-0.6-5.2&#10;&#9;&#9;&#9;&#9;&#9;&#9;c-0.1-0.6-0.1-1.1-0.2-1.7c-0.4-2.2-0.8-4.3-1.3-6.5c-0.1-0.4-0.2-0.8-0.3-1.2c-0.4-1.8-0.9-3.5-1.5-5.2&#10;&#9;&#9;&#9;&#9;&#9;&#9;c-0.1-0.3-0.2-0.6-0.3-0.9h0c-5.7-17.6-16.5-32.8-30.9-42.8l0,0v179.2h6.4c0.2,0,0.4-0.2,0.4-0.4v-19.8&#10;&#9;&#9;&#9;&#9;&#9;&#9;c4.6-0.4,9.2-1.2,13.7-2.4v0.8l36,21.8v-35.6C1178.7,268.3,1171,249.8,1157.8,236.1z" style="opacity: 0.15; fill: rgb(7, 7, 7);"/>
				</g>
			</g></g><path d="M 132.099998 1310.099976 A 5 5 0 0 1 127.099998 1315.099976 A 5 5 0 0 1 122.099998 1310.099976 A 5 5 0 0 1 127.099998 1305.099976 A 5 5 0 0 1 132.099998 1310.099976 Z" class="st1" style="fill: rgb(252, 250, 247);"/><path class="st1" d="M755.9,1207.8l6.4-1.4l-6.4-1.4c-1.7-0.4-3.1-1.7-3.5-3.5l-1.4-6.4l-1.4,6.4c-0.4,1.7-1.7,3.1-3.5,3.5&#10;&#9;&#9;&#9;l-6.4,1.4l6.4,1.4c1.7,0.4,3.1,1.7,3.5,3.5l1.4,6.4l1.4-6.4C752.8,1209.5,754.2,1208.2,755.9,1207.8z" style="fill: rgb(252, 250, 247);"/><path class="st1" d="M509.8,1130l8.1-1.8l-8.1-1.8c-2.2-0.5-3.9-2.2-4.4-4.4l-1.8-8.1l-1.8,8.1c-0.5,2.2-2.2,3.9-4.4,4.4l-8.1,1.8&#10;&#9;&#9;&#9;l8.1,1.8c2.2,0.5,3.9,2.2,4.4,4.4l1.8,8.1l1.8-8.1C505.9,1132.2,507.6,1130.5,509.8,1130z" style="fill: rgb(252, 250, 247);"/><path d="M 1220.6 125 A 6.6 6.6 0 0 1 1214 131.6 A 6.6 6.6 0 0 1 1207.4 125 A 6.6 6.6 0 0 1 1214 118.4 A 6.6 6.6 0 0 1 1220.6 125 Z" class="st1" style="fill: rgb(252, 250, 247);"/><path d="M 102 844.599976 A 6 6 0 0 1 96 850.599976 A 6 6 0 0 1 90 844.599976 A 6 6 0 0 1 96 838.599976 A 6 6 0 0 1 102 844.599976 Z" class="st1" style="fill: rgb(252, 250, 247);"/></g>
</svg>