<?xml version="1.0" encoding="UTF-8" standalone="no"?>
<svg
   xmlns:dc="http://purl.org/dc/elements/1.1/"
   xmlns:cc="http://creativecommons.org/ns#"
   xmlns:rdf="http://www.w3.org/1999/02/22-rdf-syntax-ns#"
   xmlns:svg="http://www.w3.org/2000/svg"
   xmlns="http://www.w3.org/2000/svg"
   xmlns:sodipodi="http://sodipodi.sourceforge.net/DTD/sodipodi-0.dtd"
   xmlns:inkscape="http://www.inkscape.org/namespaces/inkscape"
   inkscape:version="1.0beta2 (2b71d25, 2019-12-03)"
   height="30"
   width="30"
   sodipodi:docname="logo-emblem-black.svg"
   xml:space="preserve"
   enable-background="new 0 0 193.4 193.4"
   viewBox="0 0 30.000001 30.000001"
   y="0px"
   x="0px"
   id="Layer_1"
   version="1.1"><metadata
   id="metadata59"><rdf:RDF><cc:Work
       rdf:about=""><dc:format>image/svg+xml</dc:format><dc:type
         rdf:resource="http://purl.org/dc/dcmitype/StillImage" /><dc:title></dc:title></cc:Work></rdf:RDF></metadata><defs
   id="defs57" /><sodipodi:namedview
   inkscape:current-layer="Layer_1"
   inkscape:window-maximized="0"
   inkscape:window-y="23"
   inkscape:window-x="0"
   inkscape:cy="10.870727"
   inkscape:cx="14.999997"
   inkscape:zoom="3.474664"
   fit-margin-bottom="0"
   fit-margin-right="0"
   fit-margin-left="0"
   fit-margin-top="0"
   showgrid="false"
   id="namedview55"
   inkscape:window-height="976"
   inkscape:window-width="1437"
   inkscape:pageshadow="2"
   inkscape:pageopacity="0"
   guidetolerance="10"
   gridtolerance="10"
   objecttolerance="10"
   borderopacity="1"
   inkscape:document-rotation="0"
   bordercolor="#666666"
   pagecolor="#ffffff" />
<g
   style="stroke-width:6.44667"
   transform="scale(0.15511892)"
   id="g22">
	<g
   style="stroke-width:6.44667"
   id="g12">
		<path
   style="stroke-width:6.44667"
   inkscape:connector-curvature="0"
   id="path10"
   d="M 96.7,193.4 C 43.4,193.4 0,150 0,96.7 0,43.4 43.4,0 96.7,0 c 53.3,0 96.7,43.4 96.7,96.7 0,53.3 -43.4,96.7 -96.7,96.7 z m 0,-182.6 c -47.3,0 -85.8,38.5 -85.8,85.8 0,47.3 38.5,85.8 85.8,85.8 47.3,0 85.8,-38.5 85.8,-85.8 0,-47.2 -38.5,-85.8 -85.8,-85.8 z" />
	</g>
	<path
   style="stroke-width:6.44667"
   inkscape:connector-curvature="0"
   id="path14"
   d="m 77.9,55.5 c -3.9,-6.4 -11.2,-10 -20.6,-10 -8.4,0 -15.7,2.8 -20.9,8.2 l -1.1,1.1 6.5,8.4 1.4,-1.5 c 4.6,-4.8 11,-5.5 14.4,-5.5 4.6,0 7.5,1.5 9.3,4.4 1.5,2.5 1.1,5.6 1.1,8.3 V 69 h -0.6 c -7,0 -15.7,0.1 -22.8,2.7 -10.1,3.7 -13.7,11.5 -13.7,17.4 0,8.4 6.6,17.3 19.7,17.3 6.2,0 11.4,-1.9 17.4,-5.6 v 4.1 H 81 V 69.4 C 81,64.5 80.7,60 77.9,55.5 Z M 52.4,96.2 c -6.4,0 -9.5,-3.9 -9.5,-7.7 0,-1.6 0.6,-3.3 2,-4.8 1.3,-1.5 3.4,-2.9 6.5,-3.6 3.1,-0.7 7.5,-0.9 10.9,-0.9 1.2,0 5.7,0.1 5.7,0.1 v 3 c 0,9.5 -9.1,13.9 -15.6,13.9 z" />
	<g
   style="stroke-width:6.44667"
   id="g18">
		<rect
   style="stroke-width:6.44667"
   id="rect16"
   height="135.89999"
   width="10.8"
   transform="matrix(0.9428,0.3333,-0.3333,0.9428,37.7561,-26.698)"
   y="28.700001"
   x="91.300003" />
	</g>
	<path
   style="stroke-width:6.44667"
   inkscape:connector-curvature="0"
   id="path20"
   d="m 132.1,69 h -3.4 L 103,142 h 11.5 l 6.7,-21 h 19.3 l 7.6,21 H 160 Z m -8.1,43 6.4,-19.1 7.1,19.1 z" />
</g>
<g
   style="stroke-width:6.44667"
   transform="scale(0.15511892)"
   id="g24">
</g>
<g
   style="stroke-width:6.44667"
   transform="scale(0.15511892)"
   id="g26">
</g>
<g
   style="stroke-width:6.44667"
   transform="scale(0.15511892)"
   id="g28">
</g>
<g
   style="stroke-width:6.44667"
   transform="scale(0.15511892)"
   id="g30">
</g>
<g
   style="stroke-width:6.44667"
   transform="scale(0.15511892)"
   id="g32">
</g>
<g
   style="stroke-width:6.44667"
   transform="scale(0.15511892)"
   id="g34">
</g>
<g
   style="stroke-width:6.44667"
   transform="scale(0.15511892)"
   id="g36">
</g>
<g
   style="stroke-width:6.44667"
   transform="scale(0.15511892)"
   id="g38">
</g>
<g
   style="stroke-width:6.44667"
   transform="scale(0.15511892)"
   id="g40">
</g>
<g
   style="stroke-width:6.44667"
   transform="scale(0.15511892)"
   id="g42">
</g>
<g
   style="stroke-width:6.44667"
   transform="scale(0.15511892)"
   id="g44">
</g>
<g
   style="stroke-width:6.44667"
   transform="scale(0.15511892)"
   id="g46">
</g>
<g
   style="stroke-width:6.44667"
   transform="scale(0.15511892)"
   id="g48">
</g>
<g
   style="stroke-width:6.44667"
   transform="scale(0.15511892)"
   id="g50">
</g>
<g
   style="stroke-width:6.44667"
   transform="scale(0.15511892)"
   id="g52">
</g>
</svg>
